<svg xmlns="http://www.w3.org/2000/svg" version="1.1" xmlns:xlink="http://www.w3.org/1999/xlink" xmlns:svgjs="http://svgjs.com/svgjs" width="500" height="500"><svg xmlns="http://www.w3.org/2000/svg" xmlns:xlink="http://www.w3.org/1999/xlink" width="500" zoomAndPan="magnify" viewBox="0 0 375 374.999991" height="500" preserveAspectRatio="xMidYMid meet" version="1.0"><path stroke-linecap="butt" transform="matrix(0.00536435, -0.749981, 0.749981, 0.00536435, 122.757287, 361.65361)" fill="none" stroke-linejoin="miter" d="M -0.000321624 7.000883 L 236.464083 7.002287 " stroke="#000000" stroke-width="14" stroke-opacity="1" stroke-miterlimit="4"></path><path stroke-linecap="butt" transform="matrix(0.555979, -0.503376, 0.503376, 0.555979, 124.133024, 357.015709)" fill="none" stroke-linejoin="miter" d="M 0.00077276 6.998341 L 350.767099 6.999973 " stroke="#000000" stroke-width="14" stroke-opacity="1" stroke-miterlimit="4"></path><path stroke-linecap="butt" transform="matrix(-0.573234, -0.483635, 0.483635, -0.573234, 324.241536, 364.923463)" fill="none" stroke-linejoin="miter" d="M -0.00138765 7.002338 L 180.081818 7.000993 " stroke="#000000" stroke-width="14" stroke-opacity="1" stroke-miterlimit="4"></path><path stroke-linecap="butt" transform="matrix(0.000000001309, -0.75, 0.75, 0.000000001309, 319.038324, 153.815848)" fill="none" stroke-linejoin="miter" d="M -0.000743922 7.000985 L 188.947185 7.000984 " stroke="#000000" stroke-width="14" stroke-opacity="1" stroke-miterlimit="4"></path><path stroke-linecap="butt" transform="matrix(0.75, 0, 0, 0.75, 38.927166, 7.865249)" fill="none" stroke-linejoin="miter" d="M -0.00184669 7.002585 L 387.487762 7.002585 " stroke="#000000" stroke-width="14" stroke-opacity="1" stroke-miterlimit="4"></path><path stroke-linecap="butt" transform="matrix(0, 0.75, -0.75, 0, 49.507098, 12.110102)" fill="none" stroke-linejoin="miter" d="M -0.000969766 6.999048 L 466.441769 6.999048 " stroke="#000000" stroke-width="14" stroke-opacity="1" stroke-miterlimit="4"></path><path stroke-linecap="butt" transform="matrix(-0.75, 0, 0, -0.75, 337.438869, 367.134732)" fill="none" stroke-linejoin="miter" d="M 0.00182499 7.00256 L 398.017476 7.00256 " stroke="#000000" stroke-width="14" stroke-opacity="1" stroke-miterlimit="4"></path></svg><style>@media (prefers-color-scheme: light) { :root { filter: none; } }
@media (prefers-color-scheme: dark) { :root { filter: invert(100%); } }
</style></svg>