<svg width="25" height="26" viewBox="0 0 25 26" fill="none" xmlns="http://www.w3.org/2000/svg">
<path d="M12.5 9.1C11.5054 9.1 10.5516 9.51089 9.84835 10.2423C9.14509 10.9737 8.75 11.9657 8.75 13C8.75 14.0343 9.14509 15.0263 9.84835 15.7577C10.5516 16.4891 11.5054 16.9 12.5 16.9C13.4946 16.9 14.4484 16.4891 15.1517 15.7577C15.8549 15.0263 16.25 14.0343 16.25 13C16.25 11.9657 15.8549 10.9737 15.1517 10.2423C14.4484 9.51089 13.4946 9.1 12.5 9.1ZM12.5 6.5C14.1576 6.5 15.7473 7.18482 16.9194 8.40381C18.0915 9.62279 18.75 11.2761 18.75 13C18.75 14.7239 18.0915 16.3772 16.9194 17.5962C15.7473 18.8152 14.1576 19.5 12.5 19.5C10.8424 19.5 9.25269 18.8152 8.08058 17.5962C6.90848 16.3772 6.25 14.7239 6.25 13C6.25 11.2761 6.90848 9.62279 8.08058 8.40381C9.25269 7.18482 10.8424 6.5 12.5 6.5ZM20.625 6.175C20.625 6.60598 20.4604 7.0193 20.1674 7.32405C19.8743 7.62879 19.4769 7.8 19.0625 7.8C18.6481 7.8 18.2507 7.62879 17.9576 7.32405C17.6646 7.0193 17.5 6.60598 17.5 6.175C17.5 5.74402 17.6646 5.3307 17.9576 5.02595C18.2507 4.7212 18.6481 4.55 19.0625 4.55C19.4769 4.55 19.8743 4.7212 20.1674 5.02595C20.4604 5.3307 20.625 5.74402 20.625 6.175ZM12.5 2.6C9.4075 2.6 8.9025 2.6091 7.46375 2.6754C6.48375 2.7235 5.82625 2.86 5.21625 3.107C4.70577 3.30192 4.24427 3.61434 3.86625 4.0209C3.47501 4.41402 3.17419 4.89396 2.98625 5.4249C2.74875 6.0619 2.6175 6.7444 2.5725 7.7623C2.5075 9.1975 2.49875 9.6993 2.49875 13C2.49875 16.2175 2.5075 16.7414 2.57125 18.2377C2.6175 19.2556 2.74875 19.9407 2.985 20.5738C3.1975 21.1393 3.4475 21.5462 3.8625 21.9778C4.28375 22.4146 4.675 22.6759 5.2125 22.8917C5.83 23.14 6.4875 23.2778 7.4625 23.3246C8.8425 23.3922 9.325 23.4 12.4988 23.4C15.5925 23.4 16.0963 23.3909 17.535 23.3246C18.5125 23.2765 19.17 23.14 19.7812 22.8943C20.2913 22.6984 20.7526 22.3861 21.1313 21.9804C21.5525 21.5436 21.8038 21.1367 22.0113 20.5764C22.2488 19.9368 22.3813 19.253 22.4263 18.2364C22.4912 16.8025 22.4988 16.2994 22.4988 13C22.4988 9.7838 22.49 9.2586 22.4263 7.7623C22.38 6.7457 22.2475 6.0593 22.0113 5.4249C21.8228 4.89452 21.5226 4.41478 21.1325 4.0209C20.7547 3.6138 20.2931 3.30092 19.7825 3.1057C19.17 2.8587 18.5125 2.7222 17.535 2.6754C16.1562 2.6078 15.675 2.6 12.5 2.6ZM12.5 0C15.8962 0 16.32 0.0129999 17.6538 0.0779999C18.9838 0.143 19.8913 0.3601 20.6875 0.6825C21.5125 1.0127 22.2075 1.4599 22.9025 2.1814C23.5381 2.83126 24.0299 3.61737 24.3438 4.485C24.6525 5.3131 24.8625 6.2569 24.925 7.6414C24.9838 9.0272 25 9.4679 25 13C25 16.5321 24.9875 16.9728 24.925 18.3586C24.8625 19.7431 24.6525 20.6856 24.3438 21.515C24.0308 22.3831 23.5389 23.1694 22.9025 23.8186C22.2775 24.4794 21.5216 24.9909 20.6875 25.3175C19.8913 25.6386 18.9838 25.857 17.6538 25.922C16.32 25.9831 15.8962 26 12.5 26C9.10375 26 8.68 25.987 7.34625 25.922C6.01625 25.857 5.11 25.6386 4.3125 25.3175C3.47791 24.9918 2.72191 24.4802 2.0975 23.8186C1.46179 23.1688 0.96995 22.3827 0.65625 21.515C0.34625 20.6869 0.1375 19.7431 0.0750002 18.3586C0.0150002 16.9728 0 16.5321 0 13C0 9.4679 0.0125002 9.0272 0.0750002 7.6414C0.1375 6.2556 0.34625 5.3144 0.65625 4.485C0.969045 3.61683 1.461 2.83052 2.0975 2.1814C2.72209 1.52 3.47804 1.00845 4.3125 0.6825C5.10875 0.3601 6.015 0.143 7.34625 0.0779999C8.68 0.0168999 9.10375 0 12.5 0Z" fill="white"/>
</svg>
