<svg width="225" height="187" viewBox="0 0 225 187" fill="none" xmlns="http://www.w3.org/2000/svg">
<g clip-path="url(#clip0_37_173)">
<path d="M95.4485 120.775V59.5036" stroke="white" stroke-width="1.16795"/>
<path d="M95.115 120.508L162.518 59.5036" stroke="white" stroke-width="1.16795"/>
<path d="M164.225 120.508L128.546 90.4158" stroke="white" stroke-width="1.16795"/>
<path d="M162.022 48.9655L162.022 0.00436299" stroke="white" stroke-width="1.16795"/>
<path d="M61.293 0.504532H161.741" stroke="white" stroke-width="1.16795"/>
<path d="M61.7802 120.872V0.0087131" stroke="white" stroke-width="1.16795"/>
<path d="M61.293 120.828L164.471 120.828" stroke="white" stroke-width="1.16795"/>
<path d="M3.98599 169.896C4.51267 170.33 5.10081 170.686 5.75916 170.966C6.4263 171.247 7.19877 171.388 8.07658 171.388C9.12995 171.388 9.95948 171.173 10.5696 170.738C11.1884 170.295 11.5 169.699 11.5 168.948C11.5 168.646 11.4518 168.365 11.3596 168.106C11.2762 167.838 11.105 167.58 10.8505 167.334C10.5915 167.088 10.2272 166.851 9.76197 166.614C9.30551 166.369 8.71299 166.105 7.9888 165.825C7.18999 165.522 6.51847 165.219 5.96984 164.912C5.41682 164.609 4.97352 164.28 4.63557 163.929C4.30639 163.57 4.06499 163.17 3.91576 162.736C3.76215 162.306 3.68753 161.806 3.68753 161.244C3.68753 160.709 3.79726 160.2 4.0211 159.718C4.25372 159.226 4.59168 158.805 5.03936 158.454C5.49582 158.094 6.04445 157.814 6.68964 157.612C7.34361 157.401 8.09413 157.296 8.93683 157.296C9.83658 157.296 10.6442 157.392 11.3596 157.577C12.0838 157.752 12.7992 158.011 13.5014 158.349L12.729 160.121C12.2374 159.832 11.658 159.59 10.9909 159.402C10.3238 159.204 9.62152 159.104 8.88416 159.104C7.90979 159.104 7.1461 159.292 6.5843 159.665C6.03128 160.042 5.75916 160.534 5.75916 161.139C5.75916 161.433 5.79866 161.696 5.88206 161.929C5.96106 162.153 6.11906 162.368 6.35607 162.578C6.60186 162.789 6.93981 163.008 7.37433 163.227C7.80446 163.451 8.38381 163.697 9.11239 163.965C9.95509 164.28 10.6661 164.609 11.2542 164.947C11.8512 165.289 12.3252 165.649 12.6763 166.035C13.0274 166.413 13.2776 166.821 13.4312 167.264C13.5804 167.698 13.6594 168.176 13.6594 168.703C13.6594 169.431 13.519 170.072 13.2381 170.633C12.9572 171.186 12.571 171.651 12.0794 172.037C11.5878 172.423 10.9953 172.717 10.3062 172.914C9.62591 173.112 8.88416 173.213 8.07658 173.213C6.99687 173.213 6.0225 173.072 5.1447 172.792C4.26689 172.502 3.52953 172.12 2.93262 171.651L3.98599 169.896Z" fill="white"/>
<path d="M28.7877 157.559H40.3221V159.402H35.5995V172.95H33.5103V159.402H28.7877V157.559Z" fill="white"/>
<path d="M65.4079 157.559H67.4444V167.018C67.4444 167.979 67.304 168.843 67.0231 169.615C66.751 170.387 66.3647 171.045 65.8644 171.581C65.3596 172.107 64.7496 172.511 64.0385 172.792C63.3363 173.072 62.555 173.213 61.7036 173.213C59.9128 173.213 58.5127 172.695 57.5076 171.651C56.4982 170.598 55.9978 169.084 55.9978 167.106V157.559H58.087V166.772C58.087 168.246 58.3854 169.387 58.9824 170.194C59.5793 170.993 60.4834 171.388 61.7036 171.388C62.9413 171.388 63.8674 170.997 64.4774 170.212C65.0963 169.431 65.4079 168.282 65.4079 166.772V157.559Z" fill="white"/>
<path d="M84.8693 157.594C85.5584 157.524 86.2299 157.471 86.8883 157.436C87.5423 157.401 88.2972 157.384 89.153 157.384C90.4741 157.384 91.6109 157.59 92.5589 157.998C93.5157 158.41 94.3145 158.976 94.9466 159.7C95.5786 160.415 96.0394 161.253 96.3335 162.21C96.6364 163.157 96.79 164.166 96.79 165.228C96.79 166.307 96.632 167.325 96.316 168.282C96.0087 169.242 95.5347 170.085 94.8939 170.809C94.2619 171.524 93.4455 172.09 92.4536 172.511C91.4704 172.923 90.2854 173.125 88.9072 173.125C88.0733 173.125 87.3447 173.107 86.7127 173.072C86.0895 173.037 85.475 172.976 84.8693 172.897V157.594ZM89.0828 159.191C88.6615 159.191 88.2752 159.204 87.9241 159.226C87.573 159.239 87.2482 159.261 86.9585 159.297V171.195C87.2614 171.243 87.5818 171.274 87.9241 171.282C88.2621 171.296 88.6132 171.3 88.9775 171.3C89.9606 171.3 90.8077 171.155 91.5231 170.861C92.2473 170.558 92.8398 170.137 93.2963 169.598C93.7615 169.062 94.1039 168.422 94.3145 167.685C94.534 166.948 94.6481 166.132 94.6481 165.228C94.6481 164.447 94.534 163.692 94.3145 162.964C94.1039 162.227 93.7703 161.578 93.3138 161.016C92.8574 160.455 92.278 160.012 91.5758 159.683C90.8735 159.358 90.0396 159.191 89.0828 159.191Z" fill="white"/>
<path d="M113.671 172.95V157.559H115.76V172.95H113.671Z" fill="white"/>
<path d="M132.642 165.228C132.642 164.105 132.804 163.061 133.133 162.087C133.458 161.117 133.932 160.279 134.555 159.577C135.187 158.867 135.947 158.309 136.838 157.91C137.724 157.502 138.742 157.296 139.892 157.296C141.025 157.296 142.043 157.507 142.947 157.928C143.847 158.34 144.606 158.906 145.229 159.63C145.848 160.345 146.327 161.183 146.669 162.139C147.007 163.1 147.178 164.131 147.178 165.228C147.178 166.329 147.011 167.365 146.687 168.334C146.357 169.308 145.879 170.155 145.247 170.879C144.615 171.607 143.847 172.177 142.947 172.599C142.056 173.007 141.038 173.213 139.892 173.213C138.742 173.213 137.724 173.007 136.838 172.599C135.947 172.177 135.187 171.607 134.555 170.879C133.932 170.155 133.458 169.308 133.133 168.334C132.804 167.365 132.642 166.329 132.642 165.228ZM134.766 165.228C134.766 166.027 134.876 166.799 135.099 167.544C135.332 168.295 135.666 168.957 136.1 169.527C136.543 170.089 137.083 170.545 137.715 170.896C138.356 171.238 139.085 171.405 139.892 171.405C140.744 171.405 141.49 171.247 142.122 170.931C142.763 170.616 143.303 170.186 143.737 169.633C144.167 169.084 144.492 168.435 144.703 167.685C144.922 166.926 145.036 166.105 145.036 165.228C145.036 164.447 144.918 163.684 144.685 162.947C144.448 162.21 144.11 161.556 143.667 160.981C143.232 160.411 142.693 159.955 142.052 159.612C141.42 159.275 140.7 159.104 139.892 159.104C139.085 159.104 138.356 159.261 137.715 159.577C137.083 159.884 136.543 160.31 136.1 160.858C135.666 161.411 135.332 162.06 135.099 162.806C134.876 163.557 134.766 164.364 134.766 165.228Z" fill="white"/>
<path d="M182.702 158.103L184.738 157.313L189.584 170.668L194.447 157.384L196.325 158.103L190.707 172.949H188.355L182.702 158.103Z" fill="white"/>
<path d="M223.361 171.721L221.904 173.213L214.425 165.877V172.949H212.335V157.559H214.425V164.579L220.973 157.489L222.378 158.788L216.373 165.035L223.361 171.721Z" fill="white"/>
<path d="M6.65845 186.763L9.29187 180.323H10.275L12.8733 186.763L12.0306 187.097L11.2933 185.184H8.18583L7.44848 187.079L6.65845 186.763ZM8.46673 184.429H10.9948L9.73078 181.218L8.46673 184.429Z" fill="white"/>
<path d="M21.4682 187.132L20.6431 185.307C20.4324 184.85 20.1691 184.53 19.853 184.341C19.537 184.157 19.1245 184.061 18.6241 184.061H18.4837V187.009H17.5707V180.34C17.9087 180.305 18.2291 180.283 18.5363 180.27C18.8392 180.248 19.1727 180.235 19.537 180.235C19.9452 180.235 20.3007 180.283 20.608 180.375C20.9108 180.459 21.161 180.582 21.3629 180.744C21.5735 180.897 21.7316 181.086 21.8369 181.305C21.9422 181.516 21.9949 181.757 21.9949 182.025C21.9949 182.481 21.8544 182.859 21.5735 183.148C21.2926 183.429 20.8932 183.639 20.3797 183.78C20.507 183.841 20.6255 183.903 20.7309 183.973C20.8362 184.043 20.9327 184.131 21.0293 184.236C21.1346 184.341 21.2268 184.473 21.3102 184.622C21.4024 184.763 21.4945 184.938 21.5911 185.149L22.3285 186.728L21.4682 187.132ZM19.537 181.007C19.3132 181.007 19.1157 181.016 18.9401 181.025C18.7733 181.025 18.6241 181.033 18.4837 181.042V183.288H19.537C19.9935 183.288 20.3622 183.192 20.6431 182.99C20.9327 182.78 21.082 182.481 21.082 182.095C21.082 181.779 20.9459 181.525 20.6782 181.323C20.4061 181.112 20.0286 181.007 19.537 181.007Z" fill="white"/>
<path d="M26.8365 183.657C26.8365 183.166 26.9067 182.709 27.0472 182.288C27.1876 181.867 27.3895 181.507 27.6616 181.2C27.9294 180.884 28.2498 180.639 28.6272 180.463C29.0135 180.288 29.4524 180.2 29.9439 180.2C30.4355 180.2 30.8744 180.296 31.2606 180.481C31.6469 180.656 31.9717 180.902 32.2438 181.218C32.5115 181.525 32.7178 181.885 32.8583 182.306C32.9987 182.727 33.0689 183.179 33.0689 183.657C33.0689 184.148 32.9987 184.583 32.8583 184.956C32.7178 185.32 32.551 185.636 32.3667 185.903L33.2094 186.36L32.8056 187.132L31.8751 186.43C31.6293 186.632 31.3484 186.798 31.0324 186.939C30.7164 187.066 30.3521 187.132 29.9439 187.132C29.4524 187.132 29.0135 187.035 28.6272 186.851C28.2498 186.667 27.9294 186.421 27.6616 186.114C27.3895 185.798 27.1876 185.429 27.0472 185.008C26.9067 184.587 26.8365 184.14 26.8365 183.657ZM30.4706 185.552L30.8569 184.85L31.7171 185.465C31.8663 185.219 31.9717 184.951 32.0331 184.657C32.1033 184.368 32.1385 184.034 32.1385 183.657C32.1385 183.306 32.0858 182.973 31.9804 182.657C31.8839 182.341 31.7434 182.06 31.5591 181.814C31.3704 181.56 31.1421 181.358 30.8744 181.218C30.6023 181.069 30.2951 180.99 29.9439 180.99C29.6016 180.99 29.2987 181.06 29.031 181.2C28.7589 181.332 28.5307 181.512 28.3463 181.744C28.1576 181.981 28.0128 182.262 27.9074 182.587C27.8109 182.916 27.767 183.271 27.767 183.657C27.767 183.999 27.8109 184.333 27.9074 184.657C27.9996 184.986 28.14 185.271 28.3288 185.517C28.5131 185.763 28.7413 185.965 29.0135 186.114C29.2812 186.267 29.584 186.342 29.9264 186.342C30.1941 186.342 30.4355 186.316 30.6462 186.254C30.8569 186.184 31.0368 186.105 31.1904 186.009L30.4706 185.552Z" fill="white"/>
<path d="M42.2021 180.323H43.0799V184.429C43.0799 184.85 43.0185 185.232 42.9043 185.57C42.7858 185.899 42.6147 186.18 42.3952 186.412C42.1845 186.649 41.9212 186.829 41.6052 186.956C41.298 187.07 40.96 187.132 40.5869 187.132C39.8145 187.132 39.2044 186.904 38.7611 186.447C38.3266 185.991 38.1115 185.333 38.1115 184.464V180.323H39.0244V184.324C39.0244 184.969 39.1517 185.465 39.4107 185.815C39.6652 186.158 40.0602 186.324 40.5869 186.324C41.1224 186.324 41.5262 186.158 41.7983 185.815C42.066 185.478 42.2021 184.982 42.2021 184.324V180.323Z" fill="white"/>
<path d="M48.4108 187.009V180.323H49.3237V187.009H48.4108Z" fill="white"/>
<path d="M54.0193 180.323H59.0579V181.112H56.9863V187.009H56.0909V181.112H54.0193V180.323Z" fill="white"/>
<path d="M63.7551 180.323H67.7755V181.095H64.668V183.131H67.3366V183.903H64.668V186.219H67.7755V187.009H63.7551V180.323Z" fill="white"/>
<path d="M72.0416 180.323H77.0802V181.112H75.0086V187.009H74.1133V181.112H72.0416V180.323Z" fill="white"/>
<path d="M85.7276 180.323H86.6054V184.429C86.6054 184.85 86.544 185.232 86.4299 185.57C86.3114 185.899 86.1402 186.18 85.9207 186.412C85.7101 186.649 85.4467 186.829 85.1307 186.956C84.8235 187.07 84.4855 187.132 84.1124 187.132C83.34 187.132 82.7299 186.904 82.2866 186.447C81.8521 185.991 81.637 185.333 81.637 184.464V180.323H82.5499V184.324C82.5499 184.969 82.6772 185.465 82.9362 185.815C83.1907 186.158 83.5858 186.324 84.1124 186.324C84.6479 186.324 85.0517 186.158 85.3238 185.815C85.5916 185.478 85.7276 184.982 85.7276 184.324V180.323Z" fill="white"/>
<path d="M95.8338 187.132L95.0087 185.307C94.798 184.85 94.5347 184.53 94.2186 184.341C93.9026 184.157 93.4901 184.061 92.9897 184.061H92.8493V187.009H91.9363V180.34C92.2743 180.305 92.5947 180.283 92.9019 180.27C93.2048 180.248 93.5383 180.235 93.9026 180.235C94.3108 180.235 94.6663 180.283 94.9736 180.375C95.2764 180.459 95.5266 180.582 95.7285 180.744C95.9391 180.897 96.0972 181.086 96.2025 181.305C96.3078 181.516 96.3605 181.757 96.3605 182.025C96.3605 182.481 96.22 182.859 95.9391 183.148C95.6583 183.429 95.2588 183.639 94.7453 183.78C94.8726 183.841 94.9911 183.903 95.0965 183.973C95.2018 184.043 95.2983 184.131 95.3949 184.236C95.5002 184.341 95.5924 184.473 95.6758 184.622C95.768 184.763 95.8601 184.938 95.9567 185.149L96.6941 186.728L95.8338 187.132ZM93.9026 181.007C93.6788 181.007 93.4813 181.016 93.3057 181.025C93.1389 181.025 92.9897 181.033 92.8493 181.042V183.288H93.9026C94.3591 183.288 94.7278 183.192 95.0087 182.99C95.2983 182.78 95.4476 182.481 95.4476 182.095C95.4476 181.779 95.3115 181.525 95.0438 181.323C94.7717 181.112 94.3942 181.007 93.9026 181.007Z" fill="white"/>
<path d="M100.816 186.763L103.449 180.323H104.432L107.031 186.763L106.188 187.097L105.451 185.184H102.343L101.606 187.079L100.816 186.763ZM102.624 184.429H105.152L103.888 181.218L102.624 184.429Z" fill="white"/>
<path d="M118.348 180.323H122.369V181.095H119.261V183.131H121.93V183.903H119.261V186.219H122.369V187.009H118.348V180.323Z" fill="white"/>
<path d="M134.027 187.009V180.323H134.94V187.009H134.027Z" fill="white"/>
<path d="M141.268 181.481V187.009H140.408V180.323H141.619L144.569 185.886V180.323H145.429V187.009H144.253L141.268 181.481Z" fill="white"/>
<path d="M150.129 180.323H155.168V181.112H153.096V187.009H152.201V181.112H150.129V180.323Z" fill="white"/>
<path d="M159.865 180.323H163.885V181.095H160.778V183.131H163.447V183.903H160.778V186.219H163.885V187.009H159.865V180.323Z" fill="white"/>
<path d="M172.822 187.132L171.996 185.307C171.786 184.85 171.522 184.53 171.206 184.341C170.89 184.157 170.478 184.061 169.977 184.061H169.837V187.009H168.924V180.34C169.262 180.305 169.582 180.283 169.89 180.27C170.193 180.248 170.526 180.235 170.89 180.235C171.299 180.235 171.654 180.283 171.961 180.375C172.264 180.459 172.514 180.582 172.716 180.744C172.927 180.897 173.085 181.086 173.19 181.305C173.296 181.516 173.348 181.757 173.348 182.025C173.348 182.481 173.208 182.859 172.927 183.148C172.646 183.429 172.247 183.639 171.733 183.78C171.86 183.841 171.979 183.903 172.084 183.973C172.19 184.043 172.286 184.131 172.383 184.236C172.488 184.341 172.58 184.473 172.664 184.622C172.756 184.763 172.848 184.938 172.944 185.149L173.682 186.728L172.822 187.132ZM170.89 181.007C170.667 181.007 170.469 181.016 170.293 181.025C170.127 181.025 169.977 181.033 169.837 181.042V183.288H170.89C171.347 183.288 171.716 183.192 171.996 182.99C172.286 182.78 172.435 182.481 172.435 182.095C172.435 181.779 172.299 181.525 172.032 181.323C171.759 181.112 171.382 181.007 170.89 181.007Z" fill="white"/>
<path d="M178.576 187.009V180.323H179.489V187.009H178.576Z" fill="white"/>
<path d="M184.571 183.657C184.571 183.166 184.641 182.709 184.781 182.288C184.931 181.867 185.141 181.507 185.413 181.2C185.681 180.884 186.01 180.639 186.397 180.463C186.792 180.288 187.239 180.2 187.731 180.2C188.222 180.2 188.661 180.296 189.048 180.481C189.443 180.656 189.776 180.902 190.048 181.218C190.316 181.525 190.522 181.885 190.663 182.306C190.812 182.727 190.891 183.179 190.891 183.657C190.891 184.14 190.821 184.587 190.68 185.008C190.54 185.429 190.329 185.798 190.048 186.114C189.776 186.421 189.451 186.667 189.065 186.851C188.679 187.035 188.231 187.132 187.731 187.132C187.239 187.132 186.792 187.035 186.397 186.851C186.01 186.667 185.681 186.421 185.413 186.114C185.141 185.798 184.931 185.429 184.781 185.008C184.641 184.587 184.571 184.14 184.571 183.657ZM185.501 183.657C185.501 183.999 185.545 184.333 185.642 184.657C185.747 184.986 185.892 185.271 186.081 185.517C186.278 185.763 186.511 185.965 186.783 186.114C187.064 186.267 187.38 186.342 187.731 186.342C188.104 186.342 188.424 186.272 188.696 186.131C188.977 185.991 189.21 185.807 189.399 185.57C189.583 185.337 189.723 185.057 189.82 184.727C189.925 184.39 189.978 184.034 189.978 183.657C189.978 183.306 189.925 182.973 189.82 182.657C189.715 182.341 189.561 182.06 189.364 181.814C189.175 181.56 188.942 181.358 188.661 181.218C188.389 181.069 188.082 180.99 187.731 180.99C187.38 180.99 187.064 181.06 186.783 181.2C186.511 181.332 186.278 181.516 186.081 181.762C185.892 181.999 185.747 182.279 185.642 182.604C185.545 182.933 185.501 183.284 185.501 183.657Z" fill="white"/>
<path d="M199.884 187.132L199.059 185.307C198.848 184.85 198.585 184.53 198.269 184.341C197.952 184.157 197.54 184.061 197.04 184.061H196.899V187.009H195.986V180.34C196.324 180.305 196.645 180.283 196.952 180.27C197.255 180.248 197.588 180.235 197.952 180.235C198.361 180.235 198.716 180.283 199.023 180.375C199.326 180.459 199.576 180.582 199.778 180.744C199.989 180.897 200.147 181.086 200.252 181.305C200.358 181.516 200.41 181.757 200.41 182.025C200.41 182.481 200.27 182.859 199.989 183.148C199.708 183.429 199.309 183.639 198.795 183.78C198.922 183.841 199.041 183.903 199.146 183.973C199.252 184.043 199.348 184.131 199.445 184.236C199.55 184.341 199.642 184.473 199.726 184.622C199.818 184.763 199.91 184.938 200.007 185.149L200.744 186.728L199.884 187.132ZM197.952 181.007C197.729 181.007 197.531 181.016 197.356 181.025C197.189 181.025 197.04 181.033 196.899 181.042V183.288H197.952C198.409 183.288 198.778 183.192 199.059 182.99C199.348 182.78 199.497 182.481 199.497 182.095C199.497 181.779 199.361 181.525 199.094 181.323C198.822 181.112 198.444 181.007 197.952 181.007Z" fill="white"/>
<path d="M205.638 180.323H209.659V181.095H206.551V183.131H209.22V183.903H206.551V186.219H209.659V187.009H205.638V180.323Z" fill="white"/>
<path d="M214.592 185.675C214.811 185.877 215.066 186.035 215.347 186.149C215.636 186.267 215.979 186.324 216.365 186.324C216.822 186.324 217.181 186.232 217.454 186.044C217.721 185.859 217.857 185.601 217.857 185.271C217.857 185.131 217.831 185.008 217.787 184.903C217.752 184.789 217.673 184.675 217.559 184.57C217.454 184.464 217.3 184.359 217.102 184.254C216.901 184.148 216.646 184.034 216.33 183.903C215.979 183.775 215.68 183.648 215.435 183.517C215.198 183.389 215.004 183.249 214.855 183.095C214.715 182.933 214.609 182.758 214.539 182.569C214.478 182.385 214.451 182.165 214.451 181.92C214.451 181.687 214.495 181.463 214.592 181.253C214.697 181.042 214.846 180.862 215.048 180.709C215.246 180.546 215.487 180.424 215.768 180.34C216.049 180.248 216.369 180.2 216.734 180.2C217.129 180.2 217.48 180.244 217.787 180.323C218.103 180.406 218.41 180.516 218.718 180.656L218.384 181.428C218.173 181.301 217.919 181.196 217.629 181.112C217.335 181.033 217.032 180.99 216.716 180.99C216.295 180.99 215.961 181.073 215.715 181.235C215.478 181.389 215.364 181.599 215.364 181.867C215.364 181.999 215.382 182.113 215.417 182.218C215.452 182.315 215.522 182.407 215.628 182.499C215.733 182.595 215.878 182.687 216.067 182.78C216.251 182.876 216.497 182.981 216.804 183.095C217.177 183.236 217.493 183.385 217.752 183.534C218.007 183.675 218.213 183.828 218.366 183.99C218.516 184.157 218.621 184.337 218.682 184.534C218.753 184.723 218.788 184.934 218.788 185.166C218.788 185.482 218.726 185.763 218.612 186.009C218.494 186.245 218.323 186.447 218.103 186.623C217.892 186.789 217.633 186.917 217.331 187.009C217.037 187.088 216.716 187.132 216.365 187.132C215.895 187.132 215.47 187.066 215.083 186.939C214.706 186.811 214.386 186.649 214.118 186.447L214.592 185.675Z" fill="white"/>
<mask id="mask0_37_173" style="mask-type:luminance" maskUnits="userSpaceOnUse" x="222" y="182" width="4" height="3">
<path d="M222.301 182.121H225.039V184.859H222.301V182.121Z" fill="white"/>
</mask>
<g mask="url(#mask0_37_173)">
<mask id="mask1_37_173" style="mask-type:luminance" maskUnits="userSpaceOnUse" x="222" y="182" width="4" height="3">
<path d="M223.67 182.121C222.915 182.121 222.301 182.736 222.301 183.49C222.301 184.245 222.915 184.859 223.67 184.859C224.425 184.859 225.039 184.245 225.039 183.49C225.039 182.736 224.425 182.121 223.67 182.121Z" fill="white"/>
</mask>
<g mask="url(#mask1_37_173)">
<path d="M222.301 182.121H225.039V184.859H222.301V182.121Z" fill="white"/>
</g>
</g>
<mask id="mask2_37_173" style="mask-type:luminance" maskUnits="userSpaceOnUse" x="0" y="182" width="3" height="3">
<path d="M0.162354 182.121H2.89673V184.859H0.162354V182.121Z" fill="white"/>
</mask>
<g mask="url(#mask2_37_173)">
<mask id="mask3_37_173" style="mask-type:luminance" maskUnits="userSpaceOnUse" x="0" y="182" width="3" height="3">
<path d="M1.53174 182.121C0.77682 182.121 0.162354 182.736 0.162354 183.49C0.162354 184.245 0.77682 184.859 1.53174 184.859C2.28665 184.859 2.89673 184.245 2.89673 183.49C2.89673 182.736 2.28665 182.121 1.53174 182.121Z" fill="white"/>
</mask>
<g mask="url(#mask3_37_173)">
<path d="M0.162354 182.121H2.89673V184.859H0.162354V182.121Z" fill="white"/>
</g>
</g>
</g>
<defs>
<clipPath id="clip0_37_173">
<rect width="225" height="187" fill="white"/>
</clipPath>
</defs>
</svg>
