<svg width="267" height="223" viewBox="0 0 267 223" fill="none" xmlns="http://www.w3.org/2000/svg">
<path d="M113.073 143.375V70.6354" stroke="#B8A79D" stroke-width="1.16795"/>
<path d="M112.677 143.057L192.661 70.6354" stroke="#B8A79D" stroke-width="1.16795"/>
<path d="M194.688 143.057L152.349 107.333" stroke="#B8A79D" stroke-width="1.16795"/>
<path d="M192.073 58.125L192.073 -3.91796e-05" stroke="#B8A79D" stroke-width="1.16795"/>
<path d="M72.5417 0.59375H191.74" stroke="#B8A79D" stroke-width="1.16795"/>
<path d="M73.1198 143.49V0.00527924" stroke="#B8A79D" stroke-width="1.16795"/>
<path d="M72.5417 143.438L194.979 143.437" stroke="#B8A79D" stroke-width="1.16795"/>
<path d="M4.53735 201.69C5.16235 202.205 5.86027 202.627 6.64152 202.96C7.43319 203.294 8.34985 203.46 9.39152 203.46C10.6415 203.46 11.6259 203.205 12.3499 202.69C13.0842 202.163 13.454 201.455 13.454 200.565C13.454 200.205 13.3967 199.872 13.2874 199.565C13.1884 199.247 12.9853 198.94 12.6832 198.648C12.3759 198.356 11.9436 198.075 11.3915 197.794C10.8499 197.502 10.1467 197.19 9.28735 196.856C8.33944 196.497 7.54256 196.137 6.89152 195.773C6.23527 195.413 5.70923 195.023 5.30819 194.606C4.91756 194.179 4.6311 193.705 4.45402 193.19C4.27173 192.679 4.18319 192.085 4.18319 191.419C4.18319 190.783 4.31339 190.179 4.57902 189.606C4.85506 189.023 5.2561 188.523 5.78735 188.106C6.32902 187.679 6.98006 187.346 7.74569 187.106C8.52173 186.856 9.41235 186.731 10.4124 186.731C11.4801 186.731 12.4384 186.846 13.2874 187.065C14.1467 187.273 14.9957 187.58 15.829 187.981L14.9124 190.085C14.329 189.742 13.6415 189.455 12.8499 189.231C12.0582 188.997 11.2249 188.877 10.3499 188.877C9.1936 188.877 8.28735 189.101 7.62069 189.544C6.96444 189.992 6.64152 190.575 6.64152 191.294C6.64152 191.643 6.68839 191.955 6.78735 192.231C6.8811 192.497 7.0686 192.752 7.34985 193.002C7.64152 193.252 8.04256 193.512 8.55819 193.773C9.0686 194.038 9.7561 194.33 10.6207 194.648C11.6207 195.023 12.4644 195.413 13.1624 195.815C13.8707 196.221 14.4332 196.648 14.8499 197.106C15.2665 197.554 15.5634 198.038 15.7457 198.565C15.9228 199.08 16.0165 199.648 16.0165 200.273C16.0165 201.137 15.8499 201.898 15.5165 202.565C15.1832 203.221 14.7249 203.773 14.1415 204.231C13.5582 204.69 12.8551 205.038 12.0374 205.273C11.2301 205.507 10.3499 205.627 9.39152 205.627C8.11027 205.627 6.95402 205.46 5.91235 205.127C4.87069 204.783 3.99569 204.33 3.28735 203.773L4.53735 201.69Z" fill="#B8A79D"/>
<path d="M33.9688 187.044H47.6563V189.231H42.0521V205.315H39.5729V189.231H33.9688V187.044Z" fill="#B8A79D"/>
<path d="M77.4247 187.044H79.8414V198.273C79.8414 199.413 79.6747 200.44 79.3414 201.356C79.0185 202.273 78.5601 203.054 77.9664 203.69C77.3674 204.315 76.6435 204.794 75.7997 205.127C74.9664 205.46 74.0393 205.627 73.0289 205.627C70.9039 205.627 69.2424 205.012 68.0497 203.773C66.8518 202.523 66.2581 200.726 66.2581 198.377V187.044H68.7372V197.981C68.7372 199.731 69.0914 201.085 69.7997 202.044C70.5081 202.992 71.581 203.46 73.0289 203.46C74.4976 203.46 75.5966 202.997 76.3206 202.065C77.0549 201.137 77.4247 199.773 77.4247 197.981V187.044Z" fill="#B8A79D"/>
<path d="M100.519 187.085C101.337 187.002 102.134 186.94 102.915 186.898C103.691 186.856 104.587 186.835 105.602 186.835C107.17 186.835 108.519 187.08 109.644 187.565C110.779 188.054 111.727 188.726 112.477 189.585C113.227 190.434 113.774 191.429 114.123 192.565C114.482 193.69 114.665 194.888 114.665 196.148C114.665 197.429 114.477 198.638 114.102 199.773C113.738 200.914 113.175 201.914 112.415 202.773C111.665 203.622 110.696 204.294 109.519 204.794C108.352 205.283 106.946 205.523 105.311 205.523C104.321 205.523 103.456 205.502 102.706 205.46C101.967 205.419 101.238 205.346 100.519 205.252V187.085ZM105.519 188.981C105.019 188.981 104.561 188.997 104.144 189.023C103.727 189.039 103.342 189.065 102.998 189.106V203.231C103.357 203.289 103.738 203.325 104.144 203.335C104.545 203.351 104.962 203.356 105.394 203.356C106.561 203.356 107.566 203.184 108.415 202.835C109.274 202.476 109.977 201.976 110.519 201.335C111.071 200.7 111.477 199.94 111.727 199.065C111.988 198.19 112.123 197.221 112.123 196.148C112.123 195.221 111.988 194.325 111.727 193.46C111.477 192.585 111.081 191.815 110.54 191.148C109.998 190.481 109.311 189.955 108.477 189.565C107.644 189.179 106.654 188.981 105.519 188.981Z" fill="#B8A79D"/>
<path d="M134.697 205.315V187.044H137.176V205.315H134.697Z" fill="#B8A79D"/>
<path d="M157.209 196.148C157.209 194.815 157.401 193.575 157.792 192.419C158.177 191.268 158.74 190.273 159.48 189.44C160.23 188.596 161.131 187.934 162.188 187.46C163.24 186.976 164.448 186.731 165.813 186.731C167.157 186.731 168.365 186.981 169.438 187.481C170.506 187.971 171.407 188.643 172.146 189.502C172.881 190.351 173.448 191.346 173.855 192.481C174.256 193.622 174.459 194.846 174.459 196.148C174.459 197.455 174.261 198.684 173.875 199.835C173.485 200.992 172.917 201.997 172.167 202.856C171.417 203.721 170.506 204.398 169.438 204.898C168.381 205.382 167.172 205.627 165.813 205.627C164.448 205.627 163.24 205.382 162.188 204.898C161.131 204.398 160.23 203.721 159.48 202.856C158.74 201.997 158.177 200.992 157.792 199.835C157.401 198.684 157.209 197.455 157.209 196.148ZM159.73 196.148C159.73 197.096 159.86 198.012 160.125 198.898C160.401 199.788 160.797 200.575 161.313 201.252C161.839 201.919 162.48 202.46 163.23 202.877C163.99 203.283 164.855 203.481 165.813 203.481C166.823 203.481 167.709 203.294 168.459 202.919C169.219 202.544 169.86 202.033 170.375 201.377C170.886 200.726 171.271 199.955 171.521 199.065C171.782 198.163 171.917 197.19 171.917 196.148C171.917 195.221 171.776 194.315 171.5 193.44C171.219 192.565 170.818 191.788 170.292 191.106C169.776 190.429 169.136 189.887 168.375 189.481C167.625 189.08 166.771 188.877 165.813 188.877C164.855 188.877 163.99 189.065 163.23 189.44C162.48 189.804 161.839 190.309 161.313 190.96C160.797 191.617 160.401 192.387 160.125 193.273C159.86 194.163 159.73 195.122 159.73 196.148Z" fill="#B8A79D"/>
<path d="M216.614 187.69L219.03 186.752L224.78 202.606L230.551 186.836L232.78 187.69L226.114 205.315H223.322L216.614 187.69Z" fill="#B8A79D"/>
<path d="M264.862 203.856L263.133 205.627L254.258 196.919V205.315H251.779V187.044H254.258V195.377L262.029 186.96L263.695 188.502L256.57 195.919L264.862 203.856Z" fill="#B8A79D"/>
<path d="M7.70868 221.714L10.8337 214.068H12.0003L15.0837 221.714L14.0837 222.11L13.2087 219.839H9.52118L8.64618 222.089L7.70868 221.714ZM9.85451 218.943H12.8545L11.3545 215.13L9.85451 218.943Z" fill="#B8A79D"/>
<path d="M25.2828 222.151L24.3037 219.984C24.0537 219.443 23.7412 219.063 23.3662 218.839C22.9912 218.62 22.5016 218.505 21.9078 218.505H21.7412V222.005H20.6578V214.089C21.0589 214.047 21.4391 214.021 21.8037 214.005C22.163 213.979 22.5589 213.964 22.9912 213.964C23.4755 213.964 23.8974 214.021 24.262 214.13C24.6214 214.229 24.9183 214.375 25.1578 214.568C25.4078 214.75 25.5953 214.974 25.7203 215.234C25.8453 215.484 25.9078 215.771 25.9078 216.089C25.9078 216.63 25.7412 217.078 25.4078 217.422C25.0745 217.755 24.6005 218.005 23.9912 218.172C24.1422 218.245 24.2828 218.318 24.4078 218.401C24.5328 218.484 24.6474 218.589 24.762 218.714C24.887 218.839 24.9964 218.995 25.0953 219.172C25.2047 219.339 25.3141 219.547 25.4287 219.797L26.3037 221.672L25.2828 222.151ZM22.9912 214.88C22.7255 214.88 22.4912 214.891 22.2828 214.901C22.0849 214.901 21.9078 214.912 21.7412 214.922V217.589H22.9912C23.5328 217.589 23.9703 217.474 24.3037 217.234C24.6474 216.984 24.8245 216.63 24.8245 216.172C24.8245 215.797 24.663 215.495 24.3453 215.255C24.0224 215.005 23.5745 214.88 22.9912 214.88Z" fill="#B8A79D"/>
<path d="M31.6532 218.026C31.6532 217.443 31.7365 216.901 31.9032 216.401C32.0699 215.901 32.3094 215.474 32.6324 215.11C32.9501 214.735 33.3303 214.443 33.7782 214.235C34.2365 214.026 34.7574 213.922 35.3407 213.922C35.924 213.922 36.4449 214.037 36.9032 214.255C37.3615 214.464 37.7469 214.755 38.0699 215.13C38.3876 215.495 38.6324 215.922 38.799 216.422C38.9657 216.922 39.049 217.459 39.049 218.026C39.049 218.61 38.9657 219.125 38.799 219.568C38.6324 220 38.4344 220.375 38.2157 220.693L39.2157 221.235L38.7365 222.151L37.6324 221.318C37.3407 221.558 37.0074 221.755 36.6324 221.922C36.2574 222.073 35.8251 222.151 35.3407 222.151C34.7574 222.151 34.2365 222.037 33.7782 221.818C33.3303 221.599 32.9501 221.308 32.6324 220.943C32.3094 220.568 32.0699 220.13 31.9032 219.63C31.7365 219.13 31.6532 218.599 31.6532 218.026ZM35.9657 220.276L36.424 219.443L37.4449 220.172C37.6219 219.88 37.7469 219.563 37.8199 219.214C37.9032 218.87 37.9449 218.474 37.9449 218.026C37.9449 217.61 37.8824 217.214 37.7574 216.839C37.6428 216.464 37.4761 216.13 37.2574 215.839C37.0334 215.537 36.7626 215.297 36.4449 215.13C36.1219 214.953 35.7574 214.86 35.3407 214.86C34.9344 214.86 34.5751 214.943 34.2574 215.11C33.9344 215.266 33.6636 215.479 33.4449 215.755C33.2209 216.037 33.049 216.37 32.924 216.755C32.8094 217.146 32.7574 217.568 32.7574 218.026C32.7574 218.433 32.8094 218.828 32.924 219.214C33.0334 219.604 33.2001 219.943 33.424 220.235C33.6428 220.526 33.9136 220.766 34.2365 220.943C34.5542 221.125 34.9136 221.214 35.3199 221.214C35.6376 221.214 35.924 221.183 36.174 221.11C36.424 221.026 36.6376 220.933 36.8199 220.818L35.9657 220.276Z" fill="#B8A79D"/>
<path d="M49.8871 214.068H50.9288V218.943C50.9288 219.443 50.8559 219.896 50.7205 220.297C50.5798 220.688 50.3767 221.021 50.1163 221.297C49.8663 221.578 49.5538 221.792 49.1788 221.943C48.8142 222.078 48.4132 222.151 47.9705 222.151C47.0538 222.151 46.3298 221.88 45.8038 221.339C45.2882 220.797 45.033 220.016 45.033 218.985V214.068H46.1163V218.818C46.1163 219.583 46.2673 220.172 46.5746 220.589C46.8767 220.995 47.3455 221.193 47.9705 221.193C48.6059 221.193 49.085 220.995 49.408 220.589C49.7257 220.188 49.8871 219.599 49.8871 218.818V214.068Z" fill="#B8A79D"/>
<path d="M57.2548 222.005V214.068H58.3382V222.005H57.2548Z" fill="#B8A79D"/>
<path d="M63.9102 214.068H69.8894V215.005H67.4311V222.005H66.3686V215.005H63.9102V214.068Z" fill="#B8A79D"/>
<path d="M75.4634 214.068H80.2342V214.985H76.5467V217.401H79.7134V218.318H76.5467V221.068H80.2342V222.005H75.4634V214.068Z" fill="#B8A79D"/>
<path d="M85.2967 214.068H91.2759V215.005H88.8175V222.005H87.755V215.005H85.2967V214.068Z" fill="#B8A79D"/>
<path d="M101.537 214.068H102.579V218.943C102.579 219.443 102.506 219.896 102.371 220.297C102.23 220.688 102.027 221.021 101.767 221.297C101.517 221.578 101.204 221.792 100.829 221.943C100.464 222.078 100.063 222.151 99.6207 222.151C98.7041 222.151 97.9801 221.88 97.4541 221.339C96.9384 220.797 96.6832 220.016 96.6832 218.985V214.068H97.7666V218.818C97.7666 219.583 97.9176 220.172 98.2249 220.589C98.527 220.995 98.9957 221.193 99.6207 221.193C100.256 221.193 100.735 220.995 101.058 220.589C101.376 220.188 101.537 219.599 101.537 218.818V214.068Z" fill="#B8A79D"/>
<path d="M113.53 222.151L112.551 219.984C112.301 219.443 111.988 219.063 111.613 218.839C111.238 218.62 110.749 218.505 110.155 218.505H109.988V222.005H108.905V214.089C109.306 214.047 109.686 214.021 110.051 214.005C110.41 213.979 110.806 213.964 111.238 213.964C111.723 213.964 112.145 214.021 112.509 214.13C112.869 214.229 113.166 214.375 113.405 214.568C113.655 214.75 113.843 214.974 113.968 215.234C114.093 215.484 114.155 215.771 114.155 216.089C114.155 216.63 113.988 217.078 113.655 217.422C113.322 217.755 112.848 218.005 112.238 218.172C112.389 218.245 112.53 218.318 112.655 218.401C112.78 218.484 112.895 218.589 113.009 218.714C113.134 218.839 113.244 218.995 113.343 219.172C113.452 219.339 113.561 219.547 113.676 219.797L114.551 221.672L113.53 222.151ZM111.238 214.88C110.973 214.88 110.738 214.891 110.53 214.901C110.332 214.901 110.155 214.912 109.988 214.922V217.589H111.238C111.78 217.589 112.218 217.474 112.551 217.234C112.895 216.984 113.072 216.63 113.072 216.172C113.072 215.797 112.91 215.495 112.593 215.255C112.27 215.005 111.822 214.88 111.238 214.88Z" fill="#B8A79D"/>
<path d="M119.442 221.714L122.567 214.068H123.734L126.817 221.714L125.817 222.11L124.942 219.839H121.255L120.38 222.089L119.442 221.714ZM121.588 218.943H124.588L123.088 215.13L121.588 218.943Z" fill="#B8A79D"/>
<path d="M140.247 214.068H145.018V214.985H141.33V217.401H144.497V218.318H141.33V221.068H145.018V222.005H140.247V214.068Z" fill="#B8A79D"/>
<path d="M158.853 222.005V214.068H159.936V222.005H158.853Z" fill="#B8A79D"/>
<path d="M167.446 215.443V222.005H166.425V214.068H167.862L171.362 220.672V214.068H172.383V222.005H170.987L167.446 215.443Z" fill="#B8A79D"/>
<path d="M177.961 214.068H183.94V215.005H181.482V222.005H180.419V215.005H177.961V214.068Z" fill="#B8A79D"/>
<path d="M189.514 214.068H194.285V214.985H190.597V217.401H193.764V218.318H190.597V221.068H194.285V222.005H189.514V214.068Z" fill="#B8A79D"/>
<path d="M204.889 222.151L203.91 219.984C203.66 219.443 203.347 219.063 202.972 218.839C202.597 218.62 202.108 218.505 201.514 218.505H201.347V222.005H200.264V214.089C200.665 214.047 201.045 214.021 201.41 214.005C201.769 213.979 202.165 213.964 202.597 213.964C203.082 213.964 203.503 214.021 203.868 214.13C204.227 214.229 204.524 214.375 204.764 214.568C205.014 214.75 205.201 214.974 205.326 215.234C205.451 215.484 205.514 215.771 205.514 216.089C205.514 216.63 205.347 217.078 205.014 217.422C204.681 217.755 204.207 218.005 203.597 218.172C203.748 218.245 203.889 218.318 204.014 218.401C204.139 218.484 204.253 218.589 204.368 218.714C204.493 218.839 204.602 218.995 204.701 219.172C204.811 219.339 204.92 219.547 205.035 219.797L205.91 221.672L204.889 222.151ZM202.597 214.88C202.332 214.88 202.097 214.891 201.889 214.901C201.691 214.901 201.514 214.912 201.347 214.922V217.589H202.597C203.139 217.589 203.576 217.474 203.91 217.234C204.253 216.984 204.431 216.63 204.431 216.172C204.431 215.797 204.269 215.495 203.951 215.255C203.628 215.005 203.181 214.88 202.597 214.88Z" fill="#B8A79D"/>
<path d="M211.718 222.005V214.068H212.801V222.005H211.718Z" fill="#B8A79D"/>
<path d="M218.831 218.026C218.831 217.443 218.915 216.901 219.081 216.401C219.258 215.901 219.508 215.474 219.831 215.11C220.149 214.735 220.54 214.443 220.998 214.235C221.467 214.026 221.998 213.922 222.581 213.922C223.165 213.922 223.685 214.037 224.144 214.255C224.612 214.464 225.008 214.755 225.331 215.13C225.649 215.495 225.894 215.922 226.06 216.422C226.237 216.922 226.331 217.459 226.331 218.026C226.331 218.599 226.248 219.13 226.081 219.63C225.915 220.13 225.665 220.568 225.331 220.943C225.008 221.308 224.623 221.599 224.165 221.818C223.706 222.037 223.175 222.151 222.581 222.151C221.998 222.151 221.467 222.037 220.998 221.818C220.54 221.599 220.149 221.308 219.831 220.943C219.508 220.568 219.258 220.13 219.081 219.63C218.915 219.13 218.831 218.599 218.831 218.026ZM219.935 218.026C219.935 218.433 219.987 218.828 220.102 219.214C220.227 219.604 220.399 219.943 220.623 220.235C220.857 220.526 221.133 220.766 221.456 220.943C221.79 221.125 222.165 221.214 222.581 221.214C223.024 221.214 223.404 221.13 223.727 220.964C224.06 220.797 224.336 220.578 224.56 220.297C224.779 220.021 224.946 219.688 225.06 219.297C225.185 218.896 225.248 218.474 225.248 218.026C225.248 217.61 225.185 217.214 225.06 216.839C224.935 216.464 224.753 216.13 224.519 215.839C224.295 215.537 224.019 215.297 223.685 215.13C223.362 214.953 222.998 214.86 222.581 214.86C222.165 214.86 221.79 214.943 221.456 215.11C221.133 215.266 220.857 215.485 220.623 215.776C220.399 216.058 220.227 216.391 220.102 216.776C219.987 217.167 219.935 217.584 219.935 218.026Z" fill="#B8A79D"/>
<path d="M237.003 222.151L236.023 219.984C235.773 219.443 235.461 219.063 235.086 218.839C234.711 218.62 234.221 218.505 233.628 218.505H233.461V222.005H232.378V214.089C232.779 214.047 233.159 214.021 233.523 214.005C233.883 213.979 234.279 213.964 234.711 213.964C235.195 213.964 235.617 214.021 235.982 214.13C236.341 214.229 236.638 214.375 236.878 214.568C237.128 214.75 237.315 214.974 237.44 215.234C237.565 215.484 237.628 215.771 237.628 216.089C237.628 216.63 237.461 217.078 237.128 217.422C236.794 217.755 236.32 218.005 235.711 218.172C235.862 218.245 236.003 218.318 236.128 218.401C236.253 218.484 236.367 218.589 236.482 218.714C236.607 218.839 236.716 218.995 236.815 219.172C236.924 219.339 237.034 219.547 237.148 219.797L238.023 221.672L237.003 222.151ZM234.711 214.88C234.445 214.88 234.211 214.891 234.003 214.901C233.805 214.901 233.628 214.912 233.461 214.922V217.589H234.711C235.253 217.589 235.69 217.474 236.023 217.234C236.367 216.984 236.544 216.63 236.544 216.172C236.544 215.797 236.383 215.495 236.065 215.255C235.742 215.005 235.294 214.88 234.711 214.88Z" fill="#B8A79D"/>
<path d="M243.831 214.068H248.602V214.985H244.915V217.401H248.081V218.318H244.915V221.068H248.602V222.005H243.831V214.068Z" fill="#B8A79D"/>
<path d="M254.456 220.422C254.717 220.662 255.019 220.849 255.352 220.985C255.696 221.125 256.102 221.193 256.56 221.193C257.102 221.193 257.529 221.084 257.852 220.86C258.17 220.641 258.331 220.334 258.331 219.943C258.331 219.776 258.3 219.63 258.248 219.505C258.206 219.37 258.113 219.235 257.977 219.11C257.852 218.985 257.67 218.86 257.435 218.735C257.196 218.61 256.894 218.474 256.519 218.318C256.102 218.167 255.748 218.016 255.456 217.86C255.175 217.709 254.946 217.542 254.769 217.36C254.602 217.167 254.477 216.959 254.394 216.735C254.321 216.516 254.29 216.255 254.29 215.964C254.29 215.688 254.342 215.422 254.456 215.172C254.581 214.922 254.758 214.709 254.998 214.526C255.232 214.334 255.519 214.188 255.852 214.089C256.185 213.979 256.566 213.922 256.998 213.922C257.467 213.922 257.883 213.974 258.248 214.068C258.623 214.167 258.988 214.297 259.352 214.464L258.956 215.38C258.706 215.229 258.404 215.104 258.06 215.005C257.712 214.912 257.352 214.86 256.977 214.86C256.477 214.86 256.081 214.959 255.79 215.151C255.508 215.334 255.373 215.584 255.373 215.901C255.373 216.058 255.394 216.193 255.435 216.318C255.477 216.433 255.56 216.542 255.685 216.651C255.81 216.766 255.982 216.875 256.206 216.985C256.425 217.099 256.717 217.224 257.081 217.36C257.524 217.526 257.899 217.703 258.206 217.88C258.508 218.047 258.753 218.229 258.935 218.422C259.113 218.62 259.238 218.834 259.31 219.068C259.394 219.292 259.435 219.542 259.435 219.818C259.435 220.193 259.363 220.526 259.227 220.818C259.087 221.099 258.883 221.339 258.623 221.547C258.373 221.745 258.066 221.896 257.706 222.005C257.357 222.099 256.977 222.151 256.56 222.151C256.003 222.151 255.498 222.073 255.04 221.922C254.592 221.771 254.212 221.578 253.894 221.339L254.456 220.422Z" fill="#B8A79D"/>
<mask id="mask0_80_165" style="mask-type:luminance" maskUnits="userSpaceOnUse" x="263" y="216" width="4" height="4">
<path d="M263.604 216.203H266.854V219.453H263.604V216.203Z" fill="white"/>
</mask>
<g mask="url(#mask0_80_165)">
<mask id="mask1_80_165" style="mask-type:luminance" maskUnits="userSpaceOnUse" x="263" y="216" width="4" height="4">
<path d="M265.229 216.203C264.333 216.203 263.604 216.932 263.604 217.828C263.604 218.724 264.333 219.453 265.229 219.453C266.125 219.453 266.854 218.724 266.854 217.828C266.854 216.932 266.125 216.203 265.229 216.203Z" fill="white"/>
</mask>
<g mask="url(#mask1_80_165)">
<path d="M263.604 216.203H266.854V219.453H263.604V216.203Z" fill="#B8A79D"/>
</g>
</g>
<mask id="mask2_80_165" style="mask-type:luminance" maskUnits="userSpaceOnUse" x="0" y="216" width="4" height="4">
<path d="M0 216.203H3.24479V219.453H0V216.203Z" fill="white"/>
</mask>
<g mask="url(#mask2_80_165)">
<mask id="mask3_80_165" style="mask-type:luminance" maskUnits="userSpaceOnUse" x="0" y="216" width="4" height="4">
<path d="M1.625 216.203C0.729167 216.203 0 216.932 0 217.828C0 218.724 0.729167 219.453 1.625 219.453C2.52083 219.453 3.24479 218.724 3.24479 217.828C3.24479 216.932 2.52083 216.203 1.625 216.203Z" fill="white"/>
</mask>
<g mask="url(#mask3_80_165)">
<path d="M0 216.203H3.24479V219.453H0V216.203Z" fill="#B8A79D"/>
</g>
</g>
</svg>
