<svg width="25" height="26" viewBox="0 0 25 26" fill="none" xmlns="http://www.w3.org/2000/svg">
<path d="M21.3568 3.78307C20.205 2.57917 18.8331 1.62464 17.3212 0.975141C15.8092 0.325641 14.1873 -0.00582413 12.5502 7.74403e-05C5.69095 7.74403e-05 0.100503 5.78506 0.100503 12.883C0.100503 15.158 0.678392 17.368 1.75879 19.318L0 26L6.59548 24.206C8.41708 25.233 10.4648 25.779 12.5502 25.779C19.4095 25.779 25 19.994 25 12.896C25 9.45105 23.706 6.21406 21.3568 3.78307ZM12.5502 23.595C10.691 23.595 8.86935 23.075 7.27387 22.1L6.89698 21.866L2.97739 22.932L4.0201 18.98L3.76884 18.577C2.73586 16.8701 2.18736 14.897 2.18593 12.883C2.18593 6.98106 6.83417 2.17107 12.5377 2.17107C15.3015 2.17107 17.902 3.28907 19.8492 5.31706C20.8134 6.31021 21.5775 7.49152 22.0972 8.7925C22.6169 10.0935 22.8819 11.4883 22.8769 12.896C22.902 18.798 18.2538 23.595 12.5502 23.595ZM18.2286 15.587C17.9146 15.431 16.3819 14.651 16.1055 14.534C15.8166 14.43 15.6156 14.378 15.402 14.69C15.1884 15.015 14.598 15.743 14.4221 15.951C14.2462 16.172 14.0578 16.198 13.7437 16.029C13.4296 15.873 12.4246 15.522 11.2437 14.43C10.3141 13.572 9.69849 12.519 9.51005 12.194C9.33417 11.869 9.48492 11.7 9.64824 11.531C9.78643 11.388 9.96231 11.154 10.1131 10.972C10.2638 10.79 10.3266 10.647 10.4271 10.439C10.5276 10.218 10.4774 10.036 10.402 9.88005C10.3266 9.72405 9.69849 8.13805 9.44723 7.48806C9.19598 6.86406 8.93216 6.94206 8.74372 6.92906H8.1407C7.92713 6.92906 7.6005 7.00706 7.31156 7.33206C7.03517 7.65705 6.23115 8.43705 6.23115 10.023C6.23115 11.609 7.34925 13.143 7.5 13.351C7.65075 13.572 9.69849 16.822 12.8141 18.213C13.5553 18.551 14.1332 18.746 14.5854 18.889C15.3266 19.136 16.005 19.097 16.5452 19.019C17.1482 18.928 18.392 18.239 18.6432 17.485C18.907 16.731 18.907 16.094 18.8191 15.951C18.7312 15.808 18.5427 15.743 18.2286 15.587Z" fill="white"/>
</svg>
